# xmcd
#
# Track frame offsets: 
#        150
#        21302
#        44661
#        64421
#        89483
#        110057
#        133737
#        157457
#        180592
#        196858
#        221026
#        239464
#        255434
#        271719
#        289569
#        306403
#        327159
#
# Disc length: 4579 seconds
#
# Revision: 0
# Processed by: cddbd v1.4PL0 Copyright (c) Steve Scherf et al.
# Submitted via: ExactAudioCopy v0.95a3
#
DISCID=0a11e111
DTITLE=周迅 - 夏天
DYEAR=2002
DGENRE=Pop
TTITLE0=翅膀
TTITLE1=看海
TTITLE2=幸福花园
TTITLE3=从明天
TTITLE4=今晚
TTITLE5=绿
TTITLE6=春天
TTITLE7=篝火
TTITLE8=活的色彩
TTITLE9=消失的原野
TTITLE10=飘摇
TTITLE11=钢铁是怎么炼成的
TTITLE12=第三天
TTITLE13=谁
TTITLE14=烟
TTITLE15=穿裙子的季节
TTITLE16=将爱情进行到底
EXTD=
EXTT0=
EXTT1=
EXTT2=
EXTT3=
EXTT4=
EXTT5=
EXTT6=
EXTT7=
EXTT8=
EXTT9=
EXTT10=
EXTT11=
EXTT12=
EXTT13=
EXTT14=
EXTT15=
EXTT16=
PLAYORDER=
